<svg xmlns="http://www.w3.org/2000/svg" version="1.1" xmlns:xlink="http://www.w3.org/1999/xlink" xmlns:svgjs="http://svgjs.dev/svgjs" width="1500" height="1500" viewBox="0 0 1500 1500"><rect width="1500" height="1500" fill="#97978d"></rect><g transform="matrix(0.6666666666666666,0,0,0.6666666666666666,249.39393939393938,501.36905203820766)"><svg viewBox="0 0 396 197" data-background-color="#97978d" preserveAspectRatio="xMidYMid meet" height="746" width="1500" xmlns="http://www.w3.org/2000/svg" xmlns:xlink="http://www.w3.org/1999/xlink"><g id="tight-bounds" transform="matrix(1,0,0,1,0.2400000000000091,-0.01414862907554948)"><svg viewBox="0 0 395.52 197.0282972581511" height="197.0282972581511" width="395.52"><g><svg viewBox="0 0 403.4929048584217 200.99999999999997" height="197.0282972581511" width="395.52"><g><rect width="8.380781419081272" height="200.99999999999997" x="156.0939886925795" y="0" fill="#dcaf93" opacity="1" stroke-width="0" stroke="transparent" fill-opacity="1" class="rect-qz-0" data-fill-palette-color="primary" rx="1%" id="qz-0" data-palette-color="#dcaf93"></rect></g><g transform="matrix(1,0,0,1,186.41398848621907,0.4999999999999858)"><svg viewBox="0 0 217.0789163722026 200" height="200" width="217.0789163722026"><g id="textblocktransform"><svg viewBox="0 0 217.0789163722026 200" height="200" width="217.0789163722026" id="textblock"><g><svg viewBox="0 0 217.0789163722026 200" height="200" width="217.0789163722026"><g transform="matrix(1,0,0,1,0,0)"><svg width="217.0789163722026" viewBox="1.0000000000000018 -38.85 92.15 81.9" height="200" data-palette-color="#dcaf93"><svg></svg><svg></svg><g class="wordmark-text-0" data-fill-palette-color="primary" id="text-0"><path d="M25.25-26.35h4.1l-4.8 26.35h-5.85l-3.55-22.25-3.5 22.25h-5.75l-4.9-26.35h4.3l3.6 23.1 3.8-23.1h5.15l3.7 23.1zM44.1-26.9c0.733 0 1.4 0.1 2 0.3v0l-0.75 4.25c-0.667-0.167-1.267-0.25-1.8-0.25v0c-1.3 0-2.367 0.583-3.2 1.75-0.833 1.167-1.483 2.95-1.95 5.35v0 15.5h-4.4v-26.35h3.8l0.35 4.9c1.233-3.633 3.217-5.45 5.95-5.45zM50.15-26.35h4.4v26.35h-4.4zM52.3-38.85c0.9 0 1.617 0.283 2.15 0.85 0.533 0.567 0.8 1.3 0.8 2.2v0c0 0.833-0.277 1.533-0.83 2.1-0.547 0.567-1.253 0.85-2.12 0.85v0c-0.867 0-1.577-0.283-2.13-0.85-0.547-0.567-0.82-1.267-0.82-2.1v0c0-0.867 0.273-1.593 0.82-2.18 0.553-0.58 1.263-0.87 2.13-0.87zM68.25-26.9c2.9 0 5.383 0.983 7.45 2.95v0l-1.9 2.55c-0.933-0.7-1.833-1.227-2.7-1.58-0.867-0.347-1.783-0.52-2.75-0.52v0c-1.167 0-2.09 0.323-2.77 0.97-0.687 0.653-1.03 1.547-1.03 2.68v0c0 1.1 0.333 1.967 1 2.6 0.667 0.633 1.933 1.283 3.8 1.95v0c2.4 0.867 4.167 1.9 5.3 3.1 1.133 1.2 1.7 2.833 1.7 4.9v0c0 2.5-0.84 4.44-2.52 5.82-1.687 1.387-3.78 2.08-6.28 2.08v0c-3.333 0-6.117-1.15-8.35-3.45v0l2.3-2.45c1.867 1.633 3.85 2.45 5.95 2.45v0c1.333 0 2.4-0.367 3.2-1.1 0.8-0.733 1.2-1.767 1.2-3.1v0c0-0.9-0.15-1.633-0.45-2.2-0.3-0.567-0.817-1.083-1.55-1.55-0.733-0.467-1.8-0.95-3.2-1.45v0c-2.333-0.867-4-1.893-5-3.08-1-1.18-1.5-2.637-1.5-4.37v0c0-1.333 0.343-2.55 1.03-3.65 0.68-1.1 1.637-1.967 2.87-2.6 1.233-0.633 2.633-0.95 4.2-0.95zM91.45-3.95l1.7 2.75c-1.5 1.2-3.183 1.8-5.05 1.8v0c-1.967 0-3.49-0.583-4.57-1.75-1.087-1.167-1.63-2.733-1.63-4.7v0-17.05h-3.55v-3.45h3.55v-5.95l4.4-0.55v6.5h5.1l-0.45 3.45h-4.65v17.1c0 1.833 0.783 2.75 2.35 2.75v0c0.533 0 1-0.067 1.4-0.2 0.4-0.133 0.867-0.367 1.4-0.7z" fill="#dcaf93" fill-rule="nonzero" stroke="none" stroke-width="1" stroke-linecap="butt" stroke-linejoin="miter" stroke-miterlimit="10" stroke-dasharray="" stroke-dashoffset="0" font-family="none" font-weight="none" font-size="none" text-anchor="none" style="mix-blend-mode: normal" data-fill-palette-color="primary" opacity="1"></path><path transform="translate(0,42.45)" d="M25.85-26.9c1.767 0 3.183 0.69 4.25 2.07 1.067 1.387 1.6 3.213 1.6 5.48v0 19.35h-4.3v-18.8c0-1.667-0.223-2.867-0.67-3.6-0.453-0.733-1.113-1.1-1.98-1.1v0c-1.767 0-3.4 1.567-4.9 4.7v0 18.8h-4.3v-18.8c0-3.133-0.883-4.7-2.65-4.7v0c-0.933 0-1.823 0.417-2.67 1.25-0.853 0.833-1.613 1.983-2.28 3.45v0 18.8h-4.3v-26.35h3.8l0.3 3.8c1.667-2.9 3.75-4.35 6.25-4.35v0c1.333 0 2.46 0.407 3.38 1.22 0.913 0.82 1.57 1.98 1.97 3.48v0c1.8-3.133 3.967-4.7 6.5-4.7zM54-5.6c0 0.933 0.133 1.623 0.4 2.07 0.267 0.453 0.7 0.813 1.3 1.08v0l-0.95 3.05c-1.233-0.2-2.207-0.593-2.92-1.18-0.72-0.58-1.23-1.453-1.53-2.62v0c-1.433 2.533-3.533 3.8-6.3 3.8v0c-2.167 0-3.893-0.727-5.18-2.18-1.28-1.447-1.92-3.37-1.92-5.77v0c0-2.8 0.867-4.943 2.6-6.43 1.733-1.48 4.25-2.22 7.55-2.22v0h2.6v-2.4c0-1.733-0.34-3-1.02-3.8-0.687-0.8-1.747-1.2-3.18-1.2v0c-1.7 0-3.683 0.45-5.95 1.35v0l-1.1-3.1c2.7-1.167 5.233-1.75 7.6-1.75v0c2.7 0 4.707 0.723 6.02 2.17 1.32 1.453 1.98 3.497 1.98 6.13v0zM44.9-2.7c2.067 0 3.65-1.4 4.75-4.2v0-6.15h-2.1c-2.1 0-3.643 0.45-4.63 1.35-0.98 0.9-1.47 2.283-1.47 4.15v0c0 1.6 0.3 2.807 0.9 3.62 0.6 0.82 1.45 1.23 2.55 1.23zM65.95 0.6c-1.467 0-2.64-0.467-3.52-1.4-0.887-0.933-1.33-2.2-1.33-3.8v0-32.35l4.4-0.5v32.75c0 1.1 0.467 1.65 1.4 1.65v0c0.433 0 0.85-0.083 1.25-0.25v0l1 3c-0.967 0.6-2.033 0.9-3.2 0.9zM78.15 0.6c-1.467 0-2.64-0.467-3.52-1.4-0.887-0.933-1.33-2.2-1.33-3.8v0-32.35l4.4-0.5v32.75c0 1.1 0.467 1.65 1.4 1.65v0c0.433 0 0.85-0.083 1.25-0.25v0l1 3c-0.967 0.6-2.033 0.9-3.2 0.9z" fill="#dcaf93" fill-rule="nonzero" stroke="none" stroke-width="1" stroke-linecap="butt" stroke-linejoin="miter" stroke-miterlimit="10" stroke-dasharray="" stroke-dashoffset="0" font-family="none" font-weight="none" font-size="none" text-anchor="none" style="mix-blend-mode: normal" data-fill-palette-color="primary" opacity="1"></path></g></svg></g></svg></g></svg></g></svg></g><g transform="matrix(1,0,0,1,0,6.419604870785889)"><svg viewBox="0 0 134.1547703180212 188.1607902584282" height="188.1607902584282" width="134.1547703180212"><g><svg xmlns="http://www.w3.org/2000/svg" xmlns:xlink="http://www.w3.org/1999/xlink" version="1.1" x="0" y="0" viewBox="15.5 0 71.422 100.174" enable-background="new 0 0 100 100" xml:space="preserve" width="134.1547703180212" height="188.1607902584282" class="icon-icon-0" data-fill-palette-color="accent" id="icon-0"><g fill="#dcaf93" data-fill-palette-color="accent"><g fill="#dcaf93" data-fill-palette-color="accent"><path d="M57.801 0H39.306c-3.828 0-6.931 2.373-6.931 5.302v15.979C22.31 26.946 15.5 37.714 15.5 50.088c0 12.374 6.811 23.143 16.875 28.807v15.98c0 2.929 3.103 5.299 6.931 5.299h18.495c3.828 0 6.933-2.37 6.933-5.299V78.913c7.988-4.493 13.916-12.214 16.026-21.399h-2.202c-2.417 0-4.379-1.957-4.379-4.374v-6.104c0-2.416 1.962-4.375 4.379-4.375h2.202c-2.11-9.182-8.038-16.904-16.026-21.399V5.302C64.733 2.373 61.629 0 57.801 0" fill="#dcaf93" data-fill-palette-color="accent"></path></g><path d="M79.426 55.399h4.363c1.729 0 3.133-1.403 3.133-3.132v-4.359c0-1.729-1.403-3.132-3.133-3.132h-4.363c-1.729 0-3.13 1.403-3.13 3.132v4.359C76.296 53.996 77.697 55.399 79.426 55.399" fill="#dcaf93" data-fill-palette-color="accent"></path></g></svg></g></svg></g></svg></g><defs></defs></svg><rect width="395.52" height="197.0282972581511" fill="none" stroke="none" visibility="hidden"></rect></g></svg></g></svg>